HIERARCHY
ROOT Root
{
  OFFSET 0.0 0.0 0.0
  CHANNELS 6 Xposition Yposition Zposition Zrotation Yrotation Xrotation
  JOINT Hips
  {
    OFFSET 0.0 100.0 0.0
    CHANNELS 6 Xposition Yposition Zposition Zrotation Yrotation Xrotation
    JOINT Spine1
    {
      OFFSET 5.003913 -0.037094 -0.013727
      CHANNELS 3 Zrotation Yrotation Xrotation
      JOINT Spine2
      {
        OFFSET 7.125363 -1e-06 0.0
        CHANNELS 3 Zrotation Yrotation Xrotation
        JOINT Chest
        {
          OFFSET 7.594027 1e-06 0.0
          CHANNELS 3 Zrotation Yrotation Xrotation
          JOINT Neck1
          {
            OFFSET 26.313086 -0.460272 -0.181672
            CHANNELS 3 Zrotation Yrotation Xrotation
            JOINT Neck2
            {
              OFFSET 8.045911 0.0 0.0
              CHANNELS 3 Zrotation Yrotation Xrotation
              JOINT Head
              {
                OFFSET 6.432774 0.0 0.0
                CHANNELS 3 Zrotation Yrotation Xrotation
                JOINT HeadEnd
                {
                  OFFSET 16.169773 0.06451 0.00362
                  CHANNELS 3 Zrotation Yrotation Xrotation
                }
                JOINT Jaw
                {
                  OFFSET 0.108741 3.12938 0.002639
                  CHANNELS 3 Zrotation Yrotation Xrotation
                }
                JOINT LeftEye
                {
                  OFFSET 4.45173 8.166359 3.206392
                  CHANNELS 3 Zrotation Yrotation Xrotation
                }
                JOINT RightEye
                {
                  OFFSET 4.436895 8.135758 -3.222429
                  CHANNELS 3 Zrotation Yrotation Xrotation
                }
              }
            }
          }
          JOINT LeftShoulder
          {
            OFFSET 23.218927 5.195579 1.621656
            CHANNELS 3 Zrotation Yrotation Xrotation
            JOINT LeftArm
            {
              OFFSET 15.902118 2e-06 -2e-06
              CHANNELS 3 Zrotation Yrotation Xrotation
              JOINT LeftForeArm
              {
                OFFSET 28.739307 0.0 -1e-06
                CHANNELS 3 Zrotation Yrotation Xrotation
                JOINT LeftHand
                {
                  OFFSET 27.093981 -4e-06 0.0
                  CHANNELS 3 Zrotation Yrotation Xrotation
                  JOINT LeftHandThumb1
                  {
                    OFFSET 2.276781 3.380274 0.83384
                    CHANNELS 3 Zrotation Yrotation Xrotation
                    JOINT LeftHandThumb2
                    {
                      OFFSET 4.705309 -1e-06 -1e-06
                      CHANNELS 3 Zrotation Yrotation Xrotation
                      JOINT LeftHandThumb3
                      {
                        OFFSET 2.798515 0.0 3e-06
                        CHANNELS 3 Zrotation Yrotation Xrotation
                        JOINT LeftHandThumbEnd
                        {
                          OFFSET 3.180793 4e-06 -4e-06
                          CHANNELS 3 Zrotation Yrotation Xrotation
                        }
                      }
                    }
                  }
                  JOINT LeftHandIndex1
                  {
                    OFFSET 3.247786 2.352677 0.137192
                    CHANNELS 3 Zrotation Yrotation Xrotation
                    JOINT LeftHandIndex2
                    {
                      OFFSET 6.367095 1e-06 0.0
                      CHANNELS 3 Zrotation Yrotation Xrotation
                      JOINT LeftHandIndex3
                      {
                        OFFSET 3.662364 0.0 0.0
                        CHANNELS 3 Zrotation Yrotation Xrotation
                        JOINT LeftHandIndex4
                        {
                          OFFSET 2.329242 4e-06 -4e-06
                          CHANNELS 3 Zrotation Yrotation Xrotation
                          JOINT LeftHandIndexEnd
                          {
                            OFFSET 2.767823 1e-06 0.0
                            CHANNELS 3 Zrotation Yrotation Xrotation
                          }
                        }
                      }
                    }
                  }
                  JOINT LeftHandMiddle1
                  {
                    OFFSET 3.163612 0.945023 -0.406112
                    CHANNELS 3 Zrotation Yrotation Xrotation
                    JOINT LeftHandMiddle2
                    {
                      OFFSET 6.276789 3e-06 0.0
                      CHANNELS 3 Zrotation Yrotation Xrotation
                      JOINT LeftHandMiddle3
                      {
                        OFFSET 4.35652 -1e-06 4e-06
                        CHANNELS 3 Zrotation Yrotation Xrotation
                        JOINT LeftHandMiddle4
                        {
                          OFFSET 2.996877 0.0 8e-06
                          CHANNELS 3 Zrotation Yrotation Xrotation
                          JOINT LeftHandMiddleEnd
                          {
                            OFFSET 2.323256 3e-06 -4e-06
                            CHANNELS 3 Zrotation Yrotation Xrotation
                          }
                        }
                      }
                    }
                  }
                  JOINT LeftHandRing1
                  {
                    OFFSET 2.882606 -0.309162 0.107445
                    CHANNELS 3 Zrotation Yrotation Xrotation
                    JOINT LeftHandRing2
                    {
                      OFFSET 6.033198 0.0 4e-06
                      CHANNELS 3 Zrotation Yrotation Xrotation
                      JOINT LeftHandRing3
                      {
                        OFFSET 4.350578 3e-06 0.0
                        CHANNELS 3 Zrotation Yrotation Xrotation
                        JOINT LeftHandRing4
                        {
                          OFFSET 2.651321 2e-06 -7e-06
                          CHANNELS 3 Zrotation Yrotation Xrotation
                          JOINT LeftHandRingEnd
                          {
                            OFFSET 1.937663 1e-06 -4e-06
                            CHANNELS 3 Zrotation Yrotation Xrotation
                          }
                        }
                      }
                    }
                  }
                  JOINT LeftHandPinky1
                  {
                    OFFSET 2.865315 -1.525436 0.575687
                    CHANNELS 3 Zrotation Yrotation Xrotation
                    JOINT LeftHandPinky2
                    {
                      OFFSET 5.54936 1e-06 -8e-06
                      CHANNELS 3 Zrotation Yrotation Xrotation
                      JOINT LeftHandPinky3
                      {
                        OFFSET 3.070974 0.0 -4e-06
                        CHANNELS 3 Zrotation Yrotation Xrotation
                        JOINT LeftHandPinky4
                        {
                          OFFSET 1.549672 1e-06 0.0
                          CHANNELS 3 Zrotation Yrotation Xrotation
                          JOINT LeftHandPinkyEnd
                          {
                            OFFSET 1.952123 0.0 0.0
                            CHANNELS 3 Zrotation Yrotation Xrotation
                          }
                        }
                      }
                    }
                  }
                }
              }
            }
          }
          JOINT RightShoulder
          {
            OFFSET 23.161716 5.296122 -1.380114
            CHANNELS 3 Zrotation Yrotation Xrotation
            JOINT RightArm
            {
              OFFSET -16.027195 -2e-06 1.1e-05
              CHANNELS 3 Zrotation Yrotation Xrotation
              JOINT RightForeArm
              {
                OFFSET -28.736639 4e-06 2e-06
                CHANNELS 3 Zrotation Yrotation Xrotation
                JOINT RightHand
                {
                  OFFSET -27.133619 6e-06 0.0
                  CHANNELS 3 Zrotation Yrotation Xrotation
                  JOINT RightHandThumb1
                  {
                    OFFSET -2.274328 -3.351035 -0.83067
                    CHANNELS 3 Zrotation Yrotation Xrotation
                    JOINT RightHandThumb2
                    {
                      OFFSET -4.703594 -3e-06 2e-06
                      CHANNELS 3 Zrotation Yrotation Xrotation
                      JOINT RightHandThumb3
                      {
                        OFFSET -2.794935 -4e-06 -3e-06
                        CHANNELS 3 Zrotation Yrotation Xrotation
                        JOINT RightHandThumbEnd
                        {
                          OFFSET -3.183852 4e-06 1e-06
                          CHANNELS 3 Zrotation Yrotation Xrotation
                        }
                      }
                    }
                  }
                  JOINT RightHandIndex1
                  {
                    OFFSET -3.253496 -2.33755 -0.127667
                    CHANNELS 3 Zrotation Yrotation Xrotation
                    JOINT RightHandIndex2
                    {
                      OFFSET -6.344434 0.0 0.0
                      CHANNELS 3 Zrotation Yrotation Xrotation
                      JOINT RightHandIndex3
                      {
                        OFFSET -3.654871 0.0 -8e-06
                        CHANNELS 3 Zrotation Yrotation Xrotation
                        JOINT RightHandIndex4
                        {
                          OFFSET -2.327586 -1e-06 0.0
                          CHANNELS 3 Zrotation Yrotation Xrotation
                          JOINT RightHandIndexEnd
                          {
                            OFFSET -2.770001 3e-06 8e-06
                            CHANNELS 3 Zrotation Yrotation Xrotation
                          }
                        }
                      }
                    }
                  }
                  JOINT RightHandMiddle1
                  {
                    OFFSET -3.168223 -0.944764 0.411762
                    CHANNELS 3 Zrotation Yrotation Xrotation
                    JOINT RightHandMiddle2
                    {
                      OFFSET -6.266691 -1e-06 -4e-06
                      CHANNELS 3 Zrotation Yrotation Xrotation
                      JOINT RightHandMiddle3
                      {
                        OFFSET -4.348901 0.0 0.0
                        CHANNELS 3 Zrotation Yrotation Xrotation
                        JOINT RightHandMiddle4
                        {
                          OFFSET -3.00024 2e-06 -4e-06
                          CHANNELS 3 Zrotation Yrotation Xrotation
                          JOINT RightHandMiddleEnd
                          {
                            OFFSET -2.321477 -4e-06 -4e-06
                            CHANNELS 3 Zrotation Yrotation Xrotation
                          }
                        }
                      }
                    }
                  }
                  JOINT RightHandRing1
                  {
                    OFFSET -2.885654 0.293261 -0.119232
                    CHANNELS 3 Zrotation Yrotation Xrotation
                    JOINT RightHandRing2
                    {
                      OFFSET -6.032835 -1e-06 -4e-06
                      CHANNELS 3 Zrotation Yrotation Xrotation
                      JOINT RightHandRing3
                      {
                        OFFSET -4.33881 0.0 -4e-06
                        CHANNELS 3 Zrotation Yrotation Xrotation
                        JOINT RightHandRing4
                        {
                          OFFSET -2.654903 -4e-06 -4e-06
                          CHANNELS 3 Zrotation Yrotation Xrotation
                          JOINT RightHandRingEnd
                          {
                            OFFSET -1.935122 0.0 4e-06
                            CHANNELS 3 Zrotation Yrotation Xrotation
                          }
                        }
                      }
                    }
                  }
                  JOINT RightHandPinky1
                  {
                    OFFSET -2.866241 1.503904 -0.60527
                    CHANNELS 3 Zrotation Yrotation Xrotation
                    JOINT RightHandPinky2
                    {
                      OFFSET -5.553177 -2e-06 0.0
                      CHANNELS 3 Zrotation Yrotation Xrotation
                      JOINT RightHandPinky3
                      {
                        OFFSET -3.062664 -1e-06 -4e-06
                        CHANNELS 3 Zrotation Yrotation Xrotation
                        JOINT RightHandPinky4
                        {
                          OFFSET -1.546529 2e-06 4e-06
                          CHANNELS 3 Zrotation Yrotation Xrotation
                          JOINT RightHandPinkyEnd
                          {
                            OFFSET -1.952341 0.0 -4e-06
                            CHANNELS 3 Zrotation Yrotation Xrotation
                          }
                        }
                      }
                    }
                  }
                }
              }
            }
          }
        }
      }
    }
    JOINT LeftLeg
    {
      OFFSET -8.443107 2.567604 10.043214
      CHANNELS 3 Zrotation Yrotation Xrotation
      JOINT LeftShin
      {
        OFFSET 43.229198 1e-06 -1e-06
        CHANNELS 3 Zrotation Yrotation Xrotation
        JOINT LeftFoot
        {
          OFFSET 42.298611 1e-06 1e-06
          CHANNELS 3 Zrotation Yrotation Xrotation
          JOINT LeftToeBase
          {
            OFFSET 14.165858 1e-06 0.0
            CHANNELS 3 Zrotation Yrotation Xrotation
            JOINT LeftToeEnd
            {
              OFFSET 6.7141 -0.234461 0.0
              CHANNELS 3 Zrotation Yrotation Xrotation
            }
          }
        }
      }
    }
    JOINT RightLeg
    {
      OFFSET -8.303923 2.592729 -10.047278
      CHANNELS 3 Zrotation Yrotation Xrotation
      JOINT RightShin
      {
        OFFSET -43.369682 0.0 1e-06
        CHANNELS 3 Zrotation Yrotation Xrotation
        JOINT RightFoot
        {
          OFFSET -42.260784 4e-06 2e-06
          CHANNELS 3 Zrotation Yrotation Xrotation
          JOINT RightToeBase
          {
            OFFSET -14.222245 -2e-06 -1e-06
            CHANNELS 3 Zrotation Yrotation Xrotation
            JOINT RightToeEnd
            {
              OFFSET -6.660062 0.232574 -2e-06
              CHANNELS 3 Zrotation Yrotation Xrotation
            }
          }
        }
      }
    }
  }
}
MOTION
Frames: 4
Frame Time: 0.03333333333333333
0.0 0.0 0.0 0.0 -0.0 0.0 16.390326 47.51894 189.39949 82.180389 -57.696609 90.997032 11.217172 2.177254 2.154848 -4.954778 0.610999 2.36647 22.759525 0.289714 2.562613 19.868311 0.707635 2.704993 -2.705414 -0.665064 -1.230075 -31.592703 -1.838663 -1.307533 5e-06 -0.0 0.0 -0.255943 -0.161699 0.088179 0.006743 -0.130585 0.217224 0.117148 -0.192848 -0.047528 -39.034153 -66.167816 41.712605 100.746284 -2.988372 -37.541668 11.545503 -0.001341 0.1352 41.483795 76.63707 40.910122 17.636631 -26.322729 52.411201 -19.46666 -14.395596 29.410395 -0.0 -8.774821 -1e-06 15.349266 -18.716293 6.387342 -0.609777 -1.795653 -3.889327 -4.807089 -11.046809 -2.937852 6e-06 -20.976019 0.0 -5.019966 -25.033556 -4.031884 5e-06 -1e-06 -1e-06 -10.634533 -5.68697 -3.565589 10.573271 -17.922953 -3.113899 2e-06 -13.821209 1e-06 -0.501776 -31.181501 -4.027018 -10.849862 -58.339951 6.212837 -13.982714 -7.150198 -2.875044 13.77273 -8.401491 -3.218241 0.347735 -34.211544 0.771654 -0.963028 -17.733366 2.62102 -0.0 -0.0 0.0 -17.346416 -20.095217 -4.201786 21.757555 -1.638376 3.866429 1e-06 -6.338824 0.0 -1.697589 -22.591743 -6.194007 -1e-06 -8e-06 -2e-06 -172.393326 -74.512527 -2.390941 54.41571 4.772367 -51.4254 38.972847 -1.617719 -0.763505 18.318407 45.939144 25.775658 22.18211 -20.3759 49.933331 -16.701815 -16.743528 28.476538 -2e-06 -12.690601 1e-06 16.132814 -18.109665 2.768126 -0.105919 -1.513856 -4.275883 -5.03904 -5.612871 -2.953557 4e-06 -11.020525 -2e-06 -6.111296 -15.895334 -3.84047 -0.0 -0.0 -0.0 -10.283369 -5.680288 -4.341839 11.028296 -11.302405 -2.372633 -1.384267 -14.238579 -6.320124 -0.625439 -26.924191 -3.8276 -3.969382 -50.317532 -3.656512 -13.708522 -7.363477 -3.72094 18.14115 -14.052739 -3.242677 5e-06 -18.78727 -0.0 -0.429712 -8.456043 2.555502 0.0 1e-06 -0.0 -15.923532 -20.094484 -5.473585 30.41921 -7.190825 1.735919 3e-06 -8.162925 -1e-06 -1.861903 -22.861469 -6.16794 -1e-06 -2e-06 -1e-06 156.036423 -14.833875 -11.170659 67.650131 -4.14119 1.776311 -39.5425 -0.779316 -9.177898 -3.279331 1.121432 3.008475 -1.0 -0.0 0.0 -60.921635 -2.568447 -3.769753 106.721703 -2.599258 0.514076 -42.154125 12.478881 2.360113 -7.541071 0.578987 1.792367 -1.000006 -0.0 1e-06 
0.0 0.0 0.0 0.0 -0.0 0.0 16.122883 47.978008 190.838211 83.41703 -58.273079 91.102287 11.345105 1.83708 2.170879 -4.801282 0.61797 2.4673 22.693478 -0.278853 2.344531 19.604622 1.26502 2.522858 -2.735535 -0.567246 -1.444637 -31.879107 -2.047807 -1.654067 6e-06 -0.0 0.0 -0.242513 -0.147529 0.089889 0.054669 -0.132579 0.229194 0.166468 -0.163493 -0.055454 -39.069469 -66.959435 41.768147 101.175171 -3.304474 -36.541126 12.199185 0.174189 0.104885 47.096256 76.88118 46.985813 17.636627 -26.322723 52.411182 -19.46666 -14.395597 29.410381 -1e-06 -8.774822 -2e-06 15.287887 -18.692526 6.423151 -0.609776 -1.795654 -3.889327 -4.807089 -11.046809 -2.93785 4e-06 -20.976011 1e-06 -5.019967 -25.033552 -4.031882 6e-06 -1e-06 -1e-06 -10.634531 -5.68697 -3.565587 10.57327 -17.922945 -3.113898 2e-06 -13.821205 1e-06 -0.501779 -31.181498 -4.027014 -10.850643 -58.251488 6.207235 -13.982712 -7.150197 -2.875041 13.772727 -8.40149 -3.218241 0.347733 -34.211544 0.771655 -0.963028 -17.733368 2.621019 -0.0 -1e-06 -0.0 -17.346415 -20.095213 -4.20178 21.757555 -1.638377 3.866427 1e-06 -6.338821 0.0 -1.697589 -22.591743 -6.194006 0.0 -5e-06 -1e-06 -172.629456 -72.882996 -2.846407 54.666309 9.847031 -53.266018 30.047602 -1.982222 -0.646554 15.937355 44.837513 20.522652 22.182117 -20.375895 49.933323 -16.701815 -16.743528 28.476536 -3e-06 -12.690603 -2e-06 16.025803 -17.94866 2.675795 -0.10592 -1.513855 -4.275881 -5.039041 -5.612871 -2.953557 4e-06 -11.020527 -4e-06 -6.111296 -15.89533 -3.840473 -1e-06 -3e-06 0.0 -10.283371 -5.680288 -4.341839 11.028296 -11.302407 -2.372635 -1.384267 -14.238579 -6.320123 -0.625436 -26.924191 -3.827605 -3.821529 -50.055691 -3.659293 -13.708526 -7.363477 -3.72094 18.141151 -14.052737 -3.242675 6e-06 -18.78727 -2e-06 -0.429712 -8.456045 2.555504 0.0 -1e-06 -0.0 -15.923536 -20.094484 -5.473587 30.419214 -7.190828 1.735925 2e-06 -8.162926 0.0 -1.861901 -22.861467 -6.167944 -1e-06 -4e-06 -1e-06 149.675629 -15.553586 -10.144914 77.611046 -3.932139 1.28127 -43.416435 -2.00536 -8.241749 -3.562067 1.154247 3.055803 -1.000002 -0.0 -0.0 -59.765808 -3.64563 -3.84414 104.521133 -2.526226 0.569611 -40.951088 12.531999 3.422216 -7.903342 0.575569 1.762203 -1.000005 -0.0 1e-06 
0.0 0.0 0.0 0.0 -0.0 0.0 15.740524 48.356899 192.256653 84.482735 -58.950722 91.534088 11.427903 1.463886 2.144995 -4.657906 0.556124 2.492072 22.607286 -0.843908 2.039773 19.405561 2.213072 2.521119 -2.756675 -0.590637 -1.599635 -32.237038 -2.244555 -1.886063 7e-06 0.0 0.0 -0.228237 -0.124699 0.082661 0.080865 -0.127238 0.220234 0.189209 -0.124828 -0.059238 -39.197578 -67.600044 41.987984 101.427673 -3.635906 -35.629879 13.28495 0.272455 0.085371 53.255589 76.962723 53.540154 17.636641 -26.322729 52.411201 -19.466663 -14.395596 29.410389 -1e-06 -8.774822 -2e-06 15.143879 -18.699699 6.520149 -0.609776 -1.795653 -3.889328 -4.80709 -11.046813 -2.937851 6e-06 -20.976019 0.0 -5.019968 -25.03356 -4.031884 6e-06 -1e-06 3e-06 -10.634537 -5.68697 -3.565587 10.573275 -17.922951 -3.113901 3e-06 -13.821211 -0.0 -0.501774 -31.181505 -4.027019 -10.780213 -58.203575 6.132397 -13.982715 -7.150198 -2.875043 13.772731 -8.401493 -3.218242 0.347737 -34.211552 0.771653 -0.963027 -17.73337 2.62102 -0.0 -0.0 -0.0 -17.346422 -20.095217 -4.201785 21.757559 -1.638376 3.86643 1e-06 -6.338825 1e-06 -1.697586 -22.591742 -6.194008 -1e-06 -5e-06 -3e-06 -173.808624 -71.947861 -2.062512 55.002682 13.051979 -54.445553 23.72835 -2.214632 -0.548801 14.067551 44.472775 16.715223 22.182121 -20.375891 49.933327 -16.701815 -16.743525 28.476536 -3e-06 -12.690601 -1e-06 15.957117 -17.829149 2.66556 -0.105919 -1.513857 -4.275883 -5.039042 -5.612873 -2.953557 6e-06 -11.020527 -2e-06 -6.111298 -15.895338 -3.840473 -0.0 0.0 1e-06 -10.283371 -5.680289 -4.341841 11.028296 -11.302408 -2.372634 -1.384268 -14.238581 -6.320124 -0.625436 -26.924191 -3.827604 -3.772719 -49.996643 -3.585674 -13.708526 -7.363476 -3.72094 18.141153 -14.052743 -3.242676 7e-06 -18.787273 -4e-06 -0.42971 -8.456041 2.555503 0.0 -1e-06 1e-06 -15.923536 -20.094486 -5.473588 30.41921 -7.190827 1.735926 3e-06 -8.162927 0.0 -1.861899 -22.861469 -6.167946 0.0 -3e-06 -1e-06 143.127258 -16.136274 -8.801865 87.262367 -3.547335 0.864221 -47.567062 -3.975159 -7.545245 -3.962711 1.206661 3.069338 -1.000003 1e-06 -1e-06 -58.663757 -4.79196 -4.176798 102.431252 -2.375355 0.64477 -40.088726 12.289274 4.4572 -8.030776 0.54903 1.754317 -1.000002 -0.0 0.0 
0.0 0.0 0.0 0.0 -0.0 0.0 15.268716 48.615101 193.649445 85.350876 -59.564522 92.211739 11.482559 1.064818 2.096574 -4.550282 0.433607 2.436976 22.579893 -1.39924 1.640246 19.296358 3.404614 2.673085 -2.774113 -0.726783 -1.642075 -32.543922 -2.358619 -2.039723 6e-06 -0.0 -0.0 -0.216061 -0.102868 0.070488 0.087978 -0.119172 0.195619 0.190734 -0.09139 -0.057604 -39.151524 -68.196518 42.126663 101.374161 -4.049273 -34.854267 14.58278 0.282139 0.069168 59.19883 76.759628 59.593723 17.636633 -26.322737 52.411213 -19.466663 -14.395598 29.410395 -3e-06 -8.774822 -1e-06 15.047952 -18.707022 6.593598 -0.609777 -1.795654 -3.889328 -4.807089 -11.046811 -2.937851 7e-06 -20.976019 1e-06 -5.019967 -25.03356 -4.031883 6e-06 0.0 -1e-06 -10.634536 -5.686972 -3.565589 10.573277 -17.922953 -3.1139 2e-06 -13.82121 2e-06 -0.501776 -31.181507 -4.027018 -10.70584 -58.176281 6.053773 -13.982716 -7.150198 -2.875043 13.772733 -8.401493 -3.218242 0.347735 -34.211555 0.771654 -0.963029 -17.733372 2.621021 -0.0 -0.0 0.0 -17.346422 -20.095219 -4.201784 21.757561 -1.638377 3.866429 1e-06 -6.338824 1e-06 -1.697586 -22.591747 -6.194008 -1e-06 -6e-06 -1e-06 -175.717453 -71.782219 -0.213469 55.670395 14.890168 -55.459354 19.781528 -2.343011 -0.467541 12.862966 44.712124 14.114777 22.182117 -20.375895 49.933319 -16.701811 -16.74353 28.476528 -3e-06 -12.6906 -2e-06 15.941699 -17.763819 2.665644 -0.10592 -1.513856 -4.275879 -5.039039 -5.612869 -2.953556 5e-06 -11.02052 -3e-06 -6.111297 -15.895324 -3.840472 1e-06 -1e-06 0.0 -10.283371 -5.680287 -4.341837 11.028295 -11.302402 -2.372632 -1.384268 -14.238575 -6.320122 -0.625436 -26.924181 -3.827599 -3.746472 -49.9809 -3.537989 -13.708525 -7.363472 -3.720938 18.14115 -14.052739 -3.242675 6e-06 -18.787268 1e-06 -0.429711 -8.456043 2.555504 -0.0 -1e-06 -0.0 -15.923532 -20.094475 -5.473585 30.41921 -7.190827 1.735926 3e-06 -8.162921 -1e-06 -1.861902 -22.861464 -6.16794 -1e-06 -3e-06 -2e-06 136.630127 -16.494307 -7.293426 95.972679 -2.993276 0.593867 -51.924999 -6.567827 -7.067178 -4.358334 1.264527 3.060117 -0.999998 0.0 0.0 -57.44664 -5.846025 -4.721885 100.428299 -2.209847 0.717491 -39.32114 11.845346 5.485608 -7.864898 0.505329 1.764974 -1.000003 -0.0 -0.0 
